<mxfile host="app.diagrams.net" modified="2024-04-08T05:14:41.643Z" agent="Mozilla/5.0 (Macintosh; Intel Mac OS X 10_15_7) AppleWebKit/537.36 (KHTML, like Gecko) Chrome/123.0.0.0 Safari/537.36" version="23.1.5" etag="V4_CyPqo4HGG5geubfE0" type="github">
  <diagram name="Page-1" id="6cDRXAokAyTNLVKNYX4n">
    <mxGraphModel>
      <root>
        <mxCell id="0" />
        <mxCell id="1" parent="0" />
      </root>
    </mxGraphModel>
  </diagram>
</mxfile>
